<svg xmlns="http://www.w3.org/2000/svg" viewBox="0 0 1600 2100" font-family="'Noto Sans SC','PingFang SC','Microsoft YaHei',sans-serif">
  <defs>
    <linearGradient id="brandGrad" x1="0" y1="0" x2="1" y2="1">
      <stop offset="0%" stop-color="#0E5FD8"/><stop offset="100%" stop-color="#0A47A3"/>
    </linearGradient>
    <filter id="cardShadow" x="-20%" y="-20%" width="140%" height="140%">
      <feDropShadow dx="0" dy="3" stdDeviation="6" flood-color="#1A1F26" flood-opacity="0.10"/>
    </filter>
    <filter id="phoneShadow" x="-30%" y="-30%" width="160%" height="160%">
      <feDropShadow dx="0" dy="10" stdDeviation="24" flood-color="#0A47A3" flood-opacity="0.18"/>
    </filter>
    <style>
      .hair{stroke:#DFE3E8;stroke-width:1}
      .tprimary{fill:#1A1F26}
      .tsecondary{fill:#5A6472}
      .ttertiary{fill:#8A94A3}
      .mono{font-family:'Roboto Mono','JetBrains Mono',monospace}
      .label{font-size:13px;fill:#5A6472}
      .title{font-size:15px;font-weight:700;fill:#1A1F26}
    </style>
  </defs>

  <rect width="1600" height="2100" fill="#F4F6F9"/>

  <!-- ============ 标题区 ============ -->
  <g transform="translate(60,52)">
    <rect x="0" y="4" width="6" height="34" rx="3" fill="#0E5FD8"/>
    <text x="20" y="30" font-size="28" font-weight="700" fill="#1A1F26">物流流转系统 · 关键页面高保真稿</text>
    <text x="20" y="58" font-size="14" fill="#5A6472">Android ｜ 仓库/车间现场扫码流转 ｜ 9:19.5 竖屏 ｜ 色彩与间距均按设计规范执行</text>
  </g>

  <!-- ============ 第 1 行：登录 / 扫码主页 / 物料详情 ============ -->
  <g transform="translate(60,140)">

    <!-- ·········· 屏幕 1：登录 ·········· -->
    <g transform="translate(0,0)">
      <rect width="340" height="720" rx="32" fill="#FFFFFF" filter="url(#phoneShadow)"/>
      <rect x="14" y="14" width="312" height="692" rx="24" fill="#F4F6F9"/>
      <!-- 状态栏 -->
      <text x="42" y="44" font-size="11" fill="#1A1F26" font-weight="600">12:12</text>
      <rect x="252" y="36" width="16" height="10" rx="2" fill="#1A1F26" opacity=".8"/>
      <rect x="272" y="37" width="14" height="8" rx="2" fill="#1A1F26" opacity=".5"/>
      <rect x="290" y="36" width="20" height="10" rx="3" fill="none" stroke="#1A1F26" stroke-opacity=".6"/>
      <!-- 品牌 -->
      <g transform="translate(170,150)">
        <rect x="-34" y="-34" width="68" height="68" rx="20" fill="url(#brandGrad)"/>
        <path d="M-15 6 L-15 -6 L-3 -6 M3 6 L15 6 L15 -6" stroke="#fff" stroke-width="4" fill="none" stroke-linecap="round" stroke-linejoin="round"/>
        <path d="M-15 -2 L15 -2" stroke="#fff" stroke-width="4" stroke-linecap="round" opacity=".55"/>
      </g>
      <text x="170" y="230" text-anchor="middle" font-size="22" font-weight="700" fill="#1A1F26">物流流转系统</text>
      <text x="170" y="256" text-anchor="middle" font-size="12" fill="#8A94A3">厂内物料流转 · 扫码作业平台</text>

      <!-- 工号输入 -->
      <g transform="translate(38,300)">
        <text x="0" y="-8" font-size="12" fill="#5A6472" font-weight="600">工号 / 手机号</text>
        <rect x="0" y="0" width="264" height="56" rx="12" fill="#fff" stroke="#0E5FD8" stroke-width="2"/>
        <text x="16" y="34" class="mono" font-size="16" fill="#1A1F26">E20260417</text>
        <path d="M244 28 l8 -8 m0 16 l-8 -8" stroke="#0E5FD8" stroke-width="2" fill="none" opacity="0"/>
      </g>
      <!-- 密码 -->
      <g transform="translate(38,378)">
        <text x="0" y="-8" font-size="12" fill="#5A6472" font-weight="600">密码</text>
        <rect x="0" y="0" width="264" height="56" rx="12" fill="#fff" stroke="#DFE3E8" stroke-width="1"/>
        <circle cx="28" cy="28" r="4" fill="#1A1F26"/><circle cx="44" cy="28" r="4" fill="#1A1F26"/>
        <circle cx="60" cy="28" r="4" fill="#1A1F26"/><circle cx="76" cy="28" r="4" fill="#1A1F26"/>
        <circle cx="92" cy="28" r="4" fill="#1A1F26"/><circle cx="108" cy="28" r="4" fill="#1A1F26"/>
        <g transform="translate(232,18)"><path d="M0 10 q8 -10 16 0" stroke="#8A94A3" stroke-width="2" fill="none"/><circle cx="8" cy="6" r="1.6" fill="#8A94A3"/></g>
      </g>
      <!-- 角色选择 -->
      <g transform="translate(38,456)">
        <text x="0" y="-8" font-size="12" fill="#5A6472" font-weight="600">登录角色（权限自动加载）</text>
        <rect x="0" y="0" width="76" height="40" rx="12" fill="#0E5FD8"/>
        <text x="38" y="25" text-anchor="middle" font-size="13" fill="#fff" font-weight="600">操作员</text>
        <rect x="84" y="0" width="76" height="40" rx="12" fill="#fff" stroke="#DFE3E8"/>
        <text x="122" y="25" text-anchor="middle" font-size="13" fill="#5A6472">仓管</text>
        <rect x="168" y="0" width="76" height="40" rx="12" fill="#fff" stroke="#DFE3E8"/>
        <text x="206" y="25" text-anchor="middle" font-size="13" fill="#5A6472">主管</text>
      </g>
      <!-- 登录按钮 -->
      <rect x="38" y="544" width="264" height="56" rx="12" fill="url(#brandGrad)"/>
      <text x="170" y="578" text-anchor="middle" font-size="17" fill="#fff" font-weight="700">登 录</text>
      <text x="170" y="626" text-anchor="middle" font-size="12" fill="#0E5FD8">免登录扫码（临时访客）</text>
      <text x="170" y="668" text-anchor="middle" font-size="11" fill="#8A94A3">v1.0.0 · 仅限厂内网络使用</text>

      <text x="170" y="762" text-anchor="middle" font-size="14" font-weight="700" fill="#1A1F26">① 登录 / 角色识别</text>
      <text x="170" y="784" text-anchor="middle" font-size="12" fill="#8A94A3">角色决定后续 Tab 与权限</text>
    </g>

    <!-- ·········· 屏幕 2：扫码主页 ·········· -->
    <g transform="translate(400,0)">
      <rect width="340" height="720" rx="32" fill="#FFFFFF" filter="url(#phoneShadow)"/>
      <rect x="14" y="14" width="312" height="692" rx="24" fill="#0F1621"/>
      <!-- 状态栏 -->
      <text x="42" y="44" font-size="11" fill="#fff" font-weight="600">12:12</text>
      <rect x="290" y="36" width="20" height="10" rx="3" fill="none" stroke="#fff" stroke-opacity=".7"/>
      <!-- 顶部提示 -->
      <text x="170" y="86" text-anchor="middle" font-size="16" fill="#fff" font-weight="600">对准条码，自动识别</text>
      <rect x="130" y="100" width="80" height="22" rx="11" fill="#F5A623" opacity=".18"/>
      <text x="170" y="115" text-anchor="middle" font-size="11" fill="#F5A623">连续扫码已开启</text>

      <!-- 取景框 -->
      <g transform="translate(44,150)">
        <rect width="252" height="252" rx="16" fill="#000" opacity=".45"/>
        <rect x="0" y="0" width="252" height="252" rx="16" fill="#000" opacity=".5"/>
        <!-- 四角 -->
        <path d="M4 40 L4 12 Q4 4 12 4 L40 4" stroke="#4A90E2" stroke-width="5" fill="none" stroke-linecap="round"/>
        <path d="M212 4 L240 4 Q248 4 248 12 L248 40" stroke="#4A90E2" stroke-width="5" fill="none" stroke-linecap="round"/>
        <path d="M248 212 L248 240 Q248 248 240 248 L212 248" stroke="#4A90E2" stroke-width="5" fill="none" stroke-linecap="round"/>
        <path d="M40 248 L12 248 Q4 248 4 240 L4 212" stroke="#4A90E2" stroke-width="5" fill="none" stroke-linecap="round"/>
        <!-- 条码示意 -->
        <g opacity=".85">
          <rect x="70" y="112" width="4" height="30" fill="#fff"/><rect x="78" y="108" width="2" height="38" fill="#fff"/>
          <rect x="84" y="112" width="5" height="30" fill="#fff"/><rect x="93" y="106" width="3" height="42" fill="#fff"/>
          <rect x="100" y="112" width="2" height="30" fill="#fff"/><rect x="106" y="108" width="6" height="38" fill="#fff"/>
          <rect x="116" y="112" width="2" height="30" fill="#fff"/><rect x="122" y="106" width="4" height="42" fill="#fff"/>
          <rect x="130" y="112" width="6" height="30" fill="#fff"/><rect x="140" y="108" width="2" height="38" fill="#fff"/>
          <rect x="146" y="112" width="4" height="30" fill="#fff"/><rect x="154" y="106" width="3" height="42" fill="#fff"/>
          <rect x="161" y="112" width="6" height="30" fill="#fff"/><rect x="171" y="108" width="4" height="38" fill="#fff"/>
        </g>
        <!-- 扫描线 -->
        <rect x="12" y="126" width="228" height="3" rx="1.5" fill="#4A90E2"/>
        <rect x="12" y="118" width="228" height="19" rx="9" fill="#4A90E2" opacity=".22"/>
      </g>

      <!-- 底部动作 -->
      <g transform="translate(44,436)">
        <rect width="76" height="76" rx="20" fill="#fff" opacity=".12"/>
        <g transform="translate(38,30)"><circle r="11" fill="none" stroke="#fff" stroke-width="2.2"/><path d="M-4 0 h8 M0 -4 v8" stroke="#fff" stroke-width="2.2" stroke-linecap="round"/></g>
        <text x="38" y="62" text-anchor="middle" font-size="10" fill="#fff" opacity=".85">手电筒</text>

        <rect x="88" width="76" height="76" rx="20" fill="#fff" opacity=".12"/>
        <g transform="translate(126,30)"><rect x="-11" y="-9" width="22" height="18" rx="3" fill="none" stroke="#fff" stroke-width="2.2"/><circle cx="0" cy="0" r="4" fill="none" stroke="#fff" stroke-width="2.2"/></g>
        <text x="126" y="62" text-anchor="middle" font-size="10" fill="#fff" opacity=".85">相册识别</text>

        <rect x="176" width="76" height="76" rx="20" fill="#fff" opacity=".12"/>
        <g transform="translate(214,30)"><path d="M-10 -4 h14 M-10 4 h14 M-10 -8 h6 M-10 8 h6" stroke="#fff" stroke-width="2.2" stroke-linecap="round"/></g>
        <text x="214" y="62" text-anchor="middle" font-size="10" fill="#fff" opacity=".85">手动输入</text>
      </g>

      <!-- 待办提示 -->
      <g transform="translate(30,540)">
        <rect width="280" height="52" rx="14" fill="#fff" opacity=".10"/>
        <rect x="12" y="14" width="24" height="24" rx="8" fill="#F5A623"/>
        <text x="24" y="31" text-anchor="middle" font-size="13" fill="#0F1621" font-weight="700">3</text>
        <text x="48" y="24" font-size="12" fill="#fff" font-weight="600">今日待办任务</text>
        <text x="48" y="40" font-size="10" fill="#fff" opacity=".6">2 条待入库 · 1 条待出库</text>
        <text x="262" y="34" text-anchor="end" font-size="14" fill="#fff" opacity=".7">›</text>
      </g>

      <!-- 底部 Tab -->
      <g transform="translate(14,634)">
        <rect width="312" height="72" rx="0" fill="#141C29"/>
        <g transform="translate(39,22)">
          <path d="M-9 0 L-9 -8 L-1 -8 M7 0 L9 0 L9 -8" stroke="#4A90E2" stroke-width="2.4" fill="none" stroke-linecap="round" stroke-linejoin="round"/>
          <path d="M-9 -3 L9 -3" stroke="#4A90E2" stroke-width="2.4" opacity=".5"/>
        </g>
        <text x="39" y="52" text-anchor="middle" font-size="10" fill="#4A90E2" font-weight="600">扫码</text>
        <g transform="translate(117,22)"><rect x="-8" y="-9" width="16" height="18" rx="3" fill="none" stroke="#8A94A3" stroke-width="2.2"/><path d="M-4 -4 h8 M-4 0 h6" stroke="#8A94A3" stroke-width="2"/></g>
        <text x="117" y="52" text-anchor="middle" font-size="10" fill="#8A94A3">任务</text>
        <g transform="translate(195,22)"><circle cy="-1" r="8" fill="none" stroke="#8A94A3" stroke-width="2.2"/><path d="M3 6 L7 10" stroke="#8A94A3" stroke-width="2.2" stroke-linecap="round"/></g>
        <text x="195" y="52" text-anchor="middle" font-size="10" fill="#8A94A3">记录</text>
        <g transform="translate(273,22)"><circle cy="-4" r="5" fill="none" stroke="#8A94A3" stroke-width="2.2"/><path d="M-8 11 q8 -8 16 0" stroke="#8A94A3" stroke-width="2.2" fill="none"/></g>
        <text x="273" y="52" text-anchor="middle" font-size="10" fill="#8A94A3">我的</text>
      </g>

      <text x="170" y="762" text-anchor="middle" font-size="14" font-weight="700" fill="#1A1F26">② 扫码主页（核心）</text>
      <text x="170" y="784" text-anchor="middle" font-size="12" fill="#8A94A3">取景框 260dp · 高频操作全部下沉</text>
    </g>

    <!-- ·········· 屏幕 3：物料详情核对 ·········· -->
    <g transform="translate(800,0)">
      <rect width="340" height="720" rx="32" fill="#FFFFFF" filter="url(#phoneShadow)"/>
      <rect x="14" y="14" width="312" height="692" rx="24" fill="#F4F6F9"/>
      <!-- AppBar -->
      <text x="42" y="48" font-size="20" fill="#1A1F26">‹</text>
      <text x="170" y="50" text-anchor="middle" font-size="16" font-weight="700" fill="#1A1F26">物料详情</text>
      <text x="298" y="48" text-anchor="end" font-size="13" fill="#0E5FD8">复制</text>
      <!-- 成功横幅 -->
      <rect x="28" y="66" width="284" height="34" rx="10" fill="#00A870" opacity=".12"/>
      <path d="M42 82 l5 5 l9 -10" stroke="#00A870" stroke-width="2.6" fill="none" stroke-linecap="round" stroke-linejoin="round"/>
      <text x="64" y="88" font-size="12" fill="#00A870" font-weight="600">扫码成功 · 识别耗时 0.3s</text>

      <!-- 料号主卡 -->
      <g transform="translate(28,110)">
        <rect width="284" height="132" rx="12" fill="#fff" filter="url(#cardShadow)"/>
        <rect x="0" y="16" width="4" height="100" rx="2" fill="#00A870"/>
        <text x="20" y="30" font-size="11" fill="#8A94A3">料号 PART NO.</text>
        <text x="20" y="62" class="mono" font-size="21" font-weight="700" fill="#1A1F26" letter-spacing="0.5">MTR-2026-A00871</text>
        <text x="20" y="86" font-size="15" fill="#1A1F26" font-weight="600">伺服电机 750W</text>
        <text x="20" y="108" font-size="12" fill="#5A6472">规格：220V / 3000rpm / IP65</text>
        <rect x="196" y="20" width="72" height="24" rx="8" fill="#00A870" opacity=".14"/>
        <text x="232" y="37" text-anchor="middle" font-size="11" fill="#00A870" font-weight="600">在库可用</text>
      </g>

      <!-- 数据网格 -->
      <g transform="translate(28,258)">
        <rect width="284" height="96" rx="12" fill="#fff" filter="url(#cardShadow)"/>
        <line x1="142" y1="16" x2="142" y2="80" class="hair"/>
        <line x1="16" y1="48" x2="268" y2="48" class="hair"/>
        <text x="20" y="32" font-size="11" fill="#8A94A3">在库数量</text>
        <text x="20" y="72" class="mono" font-size="19" font-weight="700" fill="#1A1F26">1,280 <tspan font-size="12" fill="#5A6472">PCS</tspan></text>
        <text x="162" y="32" font-size="11" fill="#8A94A3">当前库位</text>
        <text x="162" y="72" class="mono" font-size="19" font-weight="700" fill="#0E5FD8">A-03-12</text>
      </g>

      <!-- 批次信息 -->
      <g transform="translate(28,368)">
        <rect width="284" height="86" rx="12" fill="#fff" filter="url(#cardShadow)"/>
        <text x="20" y="28" font-size="11" fill="#8A94A3">批次号</text>
        <text x="20" y="50" class="mono" font-size="14" fill="#1A1F26">LOT-260417-09</text>
        <text x="162" y="28" font-size="11" fill="#8A94A3">有效期</text>
        <text x="162" y="50" class="mono" font-size="14" fill="#1A1F26">2027-04-17</text>
        <line x1="16" y1="60" x2="268" y2="60" class="hair"/>
        <text x="20" y="78" font-size="11" fill="#5A6472">供应商：华东精密制造（苏州）</text>
      </g>

      <!-- 主操作 -->
      <g transform="translate(28,478)">
        <rect width="136" height="56" rx="12" fill="url(#brandGrad)"/>
        <text x="68" y="35" text-anchor="middle" font-size="15" fill="#fff" font-weight="700">确认流转</text>
        <rect x="148" width="136" height="56" rx="12" fill="#fff" stroke="#0E5FD8" stroke-width="1.5"/>
        <text x="216" y="35" text-anchor="middle" font-size="15" fill="#0E5FD8" font-weight="700">绑定库位</text>
      </g>
      <text x="170" y="566" text-anchor="middle" font-size="12" fill="#E64545">发现异常？标记异常并上报主管</text>

      <!-- 历史 -->
      <g transform="translate(28,584)">
        <rect width="284" height="82" rx="12" fill="#fff" filter="url(#cardShadow)"/>
        <text x="20" y="26" font-size="12" font-weight="700" fill="#1A1F26">最近流转</text>
        <circle cx="26" cy="46" r="3.5" fill="#00A870"/>
        <text x="40" y="50" font-size="11" fill="#5A6472">04-17 09:22 入库 +500 · 张三</text>
        <circle cx="26" cy="66" r="3.5" fill="#F5A623"/>
        <text x="40" y="70" font-size="11" fill="#5A6472">04-16 15:40 出库 -120 · 李四</text>
      </g>

      <text x="170" y="762" text-anchor="middle" font-size="14" font-weight="700" fill="#1A1F26">③ 物料详情核对</text>
      <text x="170" y="784" text-anchor="middle" font-size="12" fill="#8A94A3">料号等宽放大 · 3 步内到达提交</text>
    </g>
  </g>

  <!-- ============ 第 2 行：库位绑定 / 流转提交 / 离线队列 ============ -->
  <g transform="translate(60,910)">

    <!-- ·········· 屏幕 4：绑定库位 ·········· -->
    <g transform="translate(0,0)">
      <rect width="340" height="720" rx="32" fill="#FFFFFF" filter="url(#phoneShadow)"/>
      <rect x="14" y="14" width="312" height="692" rx="24" fill="#F4F6F9"/>
      <text x="42" y="48" font-size="20" fill="#1A1F26">‹</text>
      <text x="170" y="50" text-anchor="middle" font-size="16" font-weight="700" fill="#1A1F26">绑定库位</text>

      <!-- 流程指示 -->
      <g transform="translate(40,80)">
        <circle cx="6" cy="6" r="7" fill="#00A870"/><path d="M3 6 l2.5 2.5 l5 -5.5" stroke="#fff" stroke-width="2" fill="none" stroke-linecap="round" stroke-linejoin="round"/>
        <text x="20" y="10" font-size="11" fill="#5A6472">① 扫物料</text>
        <line x1="72" y1="6" x2="118" y2="6" stroke="#00A870" stroke-width="2"/>
        <circle cx="130" cy="6" r="7" fill="#0E5FD8"/>
        <text x="130" y="10" text-anchor="middle" font-size="9" fill="#fff" font-weight="700">2</text>
        <text x="144" y="10" font-size="11" fill="#0E5FD8" font-weight="600">② 扫库位</text>
        <line x1="196" y1="6" x2="242" y2="6" stroke="#DFE3E8" stroke-width="2"/>
        <circle cx="254" cy="6" r="7" fill="#fff" stroke="#DFE3E8" stroke-width="2"/>
        <text x="254" y="10" text-anchor="middle" font-size="9" fill="#8A94A3" font-weight="700">3</text>
        <text x="268" y="10" font-size="11" fill="#8A94A3" text-anchor="middle">③ 确认</text>
      </g>

      <!-- 已扫物料 -->
      <g transform="translate(28,120)">
        <rect width="284" height="64" rx="12" fill="#fff" filter="url(#cardShadow)"/>
        <rect x="0" y="10" width="4" height="44" rx="2" fill="#00A870"/>
        <text x="18" y="26" font-size="10" fill="#8A94A3">待绑定物料</text>
        <text x="18" y="48" class="mono" font-size="15" font-weight="700" fill="#1A1F26">MTR-2026-A00871</text>
        <text x="232" y="30" class="mono" font-size="12" fill="#5A6472">1280 PCS</text>
        <text x="232" y="50" font-size="11" fill="#5A6472">伺服电机</text>
      </g>

      <!-- 库位扫描区 -->
      <g transform="translate(28,196)">
        <rect width="284" height="196" rx="14" fill="#0F1621"/>
        <g transform="translate(100,18)">
          <rect width="84" height="84" rx="12" fill="#000" opacity=".5"/>
          <path d="M0 22 L0 8 Q0 0 8 0 L22 0" stroke="#4A90E2" stroke-width="4" fill="none" stroke-linecap="round"/>
          <path d="M62 0 L76 0 Q84 0 84 8 L84 22" stroke="#4A90E2" stroke-width="4" fill="none" stroke-linecap="round"/>
          <path d="M84 62 L84 76 Q84 84 76 84 L62 84" stroke="#4A90E2" stroke-width="4" fill="none" stroke-linecap="round"/>
          <path d="M22 84 L8 84 Q0 84 0 76 L0 62" stroke="#4A90E2" stroke-width="4" fill="none" stroke-linecap="round"/>
          <rect x="10" y="40" width="64" height="3" rx="1.5" fill="#4A90E2"/>
        </g>
        <text x="142" y="130" text-anchor="middle" font-size="13" fill="#fff" font-weight="600">扫描库位二维码</text>
        <text x="142" y="150" text-anchor="middle" font-size="10" fill="#fff" opacity=".6">如 A-03-12 · 支持贴标快速识别</text>
        <rect x="62" y="166" width="160" height="1" fill="#fff" opacity=".15"/>
      </g>

      <!-- 推荐库位 -->
      <text x="28" y="426" font-size="12" font-weight="700" fill="#1A1F26">推荐可用库位</text>
      <g transform="translate(28,438)">
        <rect width="88" height="48" rx="10" fill="#fff" stroke="#00A870" stroke-width="1.5"/>
        <text x="44" y="22" text-anchor="middle" class="mono" font-size="14" font-weight="700" fill="#00A870">A-03-12</text>
        <text x="44" y="38" text-anchor="middle" font-size="10" fill="#5A6472">空闲 · 同级</text>

        <rect x="98" width="88" height="48" rx="10" fill="#fff" stroke="#DFE3E8"/>
        <text x="142" y="22" text-anchor="middle" class="mono" font-size="14" font-weight="700" fill="#1A1F26">A-03-13</text>
        <text x="142" y="38" text-anchor="middle" font-size="10" fill="#5A6472">空闲</text>

        <rect x="196" width="88" height="48" rx="10" fill="#fff" stroke="#DFE3E8"/>
        <text x="240" y="22" text-anchor="middle" class="mono" font-size="14" font-weight="700" fill="#1A1F26">A-04-02</text>
        <text x="240" y="38" text-anchor="middle" font-size="10" fill="#5A6472">空闲 · 远</text>
      </g>

      <!-- 冲突提示 -->
      <g transform="translate(28,506)">
        <rect width="284" height="44" rx="10" fill="#E64545" opacity=".10"/>
        <path d="M26 14 v10 M26 30 v2" stroke="#E64545" stroke-width="2.4" stroke-linecap="round"/>
        <text x="40" y="28" font-size="11" fill="#E64545" font-weight="600">A-02-08 已被占用（伺服电机 · 李四）</text>
      </g>

      <!-- 提交 -->
      <rect x="28" y="570" width="284" height="56" rx="12" fill="#00A870"/>
      <text x="170" y="604" text-anchor="middle" font-size="16" fill="#fff" font-weight="700">确认绑定</text>
      <text x="170" y="650" text-anchor="middle" font-size="11" fill="#8A94A3">绑定后可在库存页按库位反查物料</text>

      <text x="170" y="762" text-anchor="middle" font-size="14" font-weight="700" fill="#1A1F26">④ 物料↔库位绑定</text>
      <text x="170" y="784" text-anchor="middle" font-size="12" fill="#8A94A3">双扫动线 · 冲突实时预判</text>
    </g>

    <!-- ·········· 屏幕 5：流转提交 ·········· -->
    <g transform="translate(400,0)">
      <rect width="340" height="720" rx="32" fill="#FFFFFF" filter="url(#phoneShadow)"/>
      <rect x="14" y="14" width="312" height="692" rx="24" fill="#F4F6F9"/>
      <text x="42" y="48" font-size="20" fill="#1A1F26">‹</text>
      <text x="170" y="50" text-anchor="middle" font-size="16" font-weight="700" fill="#1A1F26">提交流转</text>

      <!-- 流转类型 -->
      <text x="28" y="92" font-size="12" font-weight="700" fill="#1A1F26">流转类型</text>
      <g transform="translate(28,104)">
        <rect width="66" height="66" rx="12" fill="#00A870"/>
        <path d="M33 22 v22 M26 30 h14" stroke="#fff" stroke-width="2.4" stroke-linecap="round"/>
        <path d="M22 38 h22" stroke="#fff" stroke-width="2.4" opacity=".5"/>
        <text x="33" y="56" text-anchor="middle" font-size="10" fill="#fff" font-weight="700">入库</text>

        <rect x="74" width="66" height="66" rx="12" fill="#fff" stroke="#DFE3E8"/>
        <path d="M107 44 v-22 M100 30 h14" stroke="#F5A623" stroke-width="2.4" stroke-linecap="round" transform="translate(0,0)"/>
        <text x="107" y="56" text-anchor="middle" font-size="10" fill="#5A6472">出库</text>

        <rect x="148" width="66" height="66" rx="12" fill="#fff" stroke="#DFE3E8"/>
        <path d="M170 32 h22 M186 26 l6 6 l-6 6 M192 42 h-22 M176 48 l-6 -6 l6 -6" stroke="#0E5FD8" stroke-width="2" fill="none" stroke-linecap="round"/>
        <text x="181" y="56" text-anchor="middle" font-size="10" fill="#5A6472">调拨</text>

        <rect x="222" width="66" height="66" rx="12" fill="#fff" stroke="#DFE3E8"/>
        <path d="M244 30 h18 M244 38 h14 M244 46 h18" stroke="#7B61FF" stroke-width="2.2" stroke-linecap="round"/>
        <text x="255" y="56" text-anchor="middle" font-size="10" fill="#5A6472">盘点</text>
      </g>

      <!-- 数量输入 -->
      <text x="28" y="204" font-size="12" font-weight="700" fill="#1A1F26">流转数量</text>
      <g transform="translate(28,216)">
        <rect width="284" height="72" rx="12" fill="#fff" stroke="#0E5FD8" stroke-width="2"/>
        <rect x="12" y="18" width="36" height="36" rx="10" fill="#E8F0FE"/>
        <text x="30" y="43" text-anchor="middle" font-size="22" fill="#0E5FD8">−</text>
        <text x="142" y="46" text-anchor="middle" class="mono" font-size="28" font-weight="700" fill="#1A1F26">500</text>
        <rect x="236" y="18" width="36" height="36" rx="10" fill="#E8F0FE"/>
        <text x="254" y="43" text-anchor="middle" font-size="22" fill="#0E5FD8">+</text>
        <text x="142" y="66" text-anchor="middle" font-size="10" fill="#8A94A3">最大可流转 1,280 PCS</text>
      </g>

      <!-- 快捷数量 -->
      <g transform="translate(28,300)">
        <rect width="64" height="34" rx="9" fill="#fff" stroke="#DFE3E8"/>
        <text x="32" y="22" text-anchor="middle" font-size="12" fill="#5A6472">100</text>
        <rect x="72" width="64" height="34" rx="9" fill="#fff" stroke="#DFE3E8"/>
        <text x="104" y="22" text-anchor="middle" font-size="12" fill="#5A6472">500</text>
        <rect x="144" width="64" height="34" rx="9" fill="#fff" stroke="#DFE3E8"/>
        <text x="176" y="22" text-anchor="middle" font-size="12" fill="#5A6472">1000</text>
        <rect x="216" width="68" height="34" rx="9" fill="#E8F0FE"/>
        <text x="250" y="22" text-anchor="middle" font-size="12" fill="#0E5FD8" font-weight="600">全部</text>
      </g>

      <!-- 表单字段 -->
      <g transform="translate(28,350)">
        <text x="0" y="-6" font-size="11" fill="#8A94A3">来源 → 去向</text>
        <rect y="4" width="284" height="52" rx="10" fill="#fff" stroke="#DFE3E8"/>
        <text x="16" y="36" font-size="13" fill="#1A1F26">收货区</text>
        <text x="142" y="36" text-anchor="middle" font-size="14" fill="#8A94A3">→</text>
        <text x="188" y="36" font-size="13" fill="#0E5FD8" font-weight="600">线边仓 B 区</text>
      </g>
      <g transform="translate(28,418)">
        <text x="0" y="-6" font-size="11" fill="#8A94A3">关联单据</text>
        <rect y="4" width="284" height="52" rx="10" fill="#fff" stroke="#DFE3E8"/>
        <text x="16" y="36" class="mono" font-size="13" fill="#1A1F26">PO-20260417-0088</text>
        <text x="268" y="36" text-anchor="end" font-size="12" fill="#8A94A3">›</text>
      </g>
      <g transform="translate(28,486)">
        <text x="0" y="-6" font-size="11" fill="#8A94A3">备注（选填）</text>
        <rect y="4" width="284" height="52" rx="10" fill="#fff" stroke="#DFE3E8"/>
        <text x="16" y="36" font-size="13" fill="#8A94A3">生产线紧急领用…</text>
      </g>

      <!-- 提交 -->
      <rect x="28" y="560" width="284" height="56" rx="12" fill="url(#brandGrad)"/>
      <text x="170" y="594" text-anchor="middle" font-size="16" fill="#fff" font-weight="700">提交并打印标签</text>
      <text x="170" y="642" text-anchor="middle" font-size="11" fill="#8A94A3">提交后库存实时扣减，不可直接撤销</text>

      <text x="170" y="762" text-anchor="middle" font-size="14" font-weight="700" fill="#1A1F26">⑤ 流转提交</text>
      <text x="170" y="784" text-anchor="middle" font-size="12" fill="#8A94A3">类型卡 + 数量步进器 + 快捷值</text>
    </g>

    <!-- ·········· 屏幕 6：离线队列 ·········· -->
    <g transform="translate(800,0)">
      <rect width="340" height="720" rx="32" fill="#FFFFFF" filter="url(#phoneShadow)"/>
      <rect x="14" y="14" width="312" height="692" rx="24" fill="#F4F6F9"/>
      <text x="42" y="48" font-size="20" fill="#1A1F26">‹</text>
      <text x="170" y="50" text-anchor="middle" font-size="16" font-weight="700" fill="#1A1F26">离线暂存</text>
      <text x="298" y="48" text-anchor="end" font-size="13" fill="#0E5FD8">立即同步</text>

      <!-- 离线状态条 -->
      <g transform="translate(28,68)">
        <rect width="284" height="56" rx="12" fill="#F5A623" opacity=".14"/>
        <path d="M26 16 v10 M26 32 v2" stroke="#F5A623" stroke-width="2.4" stroke-linecap="round"/>
        <text x="42" y="26" font-size="13" fill="#B8791A" font-weight="700">当前处于离线状态</text>
        <text x="42" y="44" font-size="11" fill="#B8791A">3 条记录已暂存本地，联网后自动上传</text>
      </g>

      <!-- 同步进度 -->
      <g transform="translate(28,140)">
        <rect width="284" height="60" rx="12" fill="#fff" filter="url(#cardShadow)"/>
        <text x="16" y="24" font-size="11" fill="#8A94A3">上次同步</text>
        <text x="16" y="44" font-size="12" fill="#1A1F26">今天 11:48 · 成功 12 条</text>
        <rect x="180" y="20" width="88" height="8" rx="4" fill="#DFE3E8"/>
        <rect x="180" y="20" width="56" height="8" rx="4" fill="#0E5FD8"/>
        <text x="268" y="44" text-anchor="end" font-size="10" fill="#5A6472">同步中 56%</text>
      </g>

      <!-- 队列列表 -->
      <text x="28" y="230" font-size="12" font-weight="700" fill="#1A1F26">待同步队列（3）</text>

      <g transform="translate(28,242)">
        <rect width="284" height="72" rx="12" fill="#fff" filter="url(#cardShadow)"/>
        <rect x="0" y="12" width="4" height="48" rx="2" fill="#00A870"/>
        <text x="18" y="26" font-size="10" fill="#8A94A3">入库 · 12:02 提交</text>
        <text x="18" y="46" class="mono" font-size="13" font-weight="700" fill="#1A1F26">MTR-2026-A00871</text>
        <text x="18" y="62" font-size="10" fill="#5A6472">+500 PCS → A-03-12</text>
        <rect x="212" y="24" width="60" height="22" rx="7" fill="#F5A623" opacity=".16"/>
        <text x="242" y="39" text-anchor="middle" font-size="10" fill="#B8791A" font-weight="600">待上传</text>
        <text x="266" y="58" text-anchor="end" font-size="12" fill="#E64545">重试</text>
      </g>

      <g transform="translate(28,326)">
        <rect width="284" height="72" rx="12" fill="#fff" filter="url(#cardShadow)"/>
        <rect x="0" y="12" width="4" height="48" rx="2" fill="#F5A623"/>
        <text x="18" y="26" font-size="10" fill="#8A94A3">出库 · 11:56 提交</text>
        <text x="18" y="46" class="mono" font-size="13" font-weight="700" fill="#1A1F26">MTR-2026-A00902</text>
        <text x="18" y="62" font-size="10" fill="#5A6472">−120 PCS → 线边仓 B</text>
        <rect x="212" y="24" width="60" height="22" rx="7" fill="#F5A623" opacity=".16"/>
        <text x="242" y="39" text-anchor="middle" font-size="10" fill="#B8791A" font-weight="600">待上传</text>
        <text x="266" y="58" text-anchor="end" font-size="12" fill="#E64545">重试</text>
      </g>

      <g transform="translate(28,410)">
        <rect width="284" height="72" rx="12" fill="#fff" filter="url(#cardShadow)"/>
        <rect x="0" y="12" width="4" height="48" rx="2" fill="#7B61FF"/>
        <text x="18" y="26" font-size="10" fill="#8A94A3">盘点 · 11:40 提交</text>
        <text x="18" y="46" class="mono" font-size="13" font-weight="700" fill="#1A1F26">MTR-2026-B00118</text>
        <text x="18" y="62" font-size="10" fill="#5A6472">实盘 986 / 账面 990</text>
        <rect x="212" y="24" width="60" height="22" rx="7" fill="#E64545" opacity=".14"/>
        <text x="242" y="39" text-anchor="middle" font-size="10" fill="#E64545" font-weight="600">有冲突</text>
        <text x="266" y="58" text-anchor="end" font-size="12" fill="#0E5FD8">处理</text>
      </g>

      <!-- 冲突处理 -->
      <g transform="translate(28,500)">
        <rect width="284" height="112" rx="12" fill="#E64545" opacity=".08"/>
        <text x="16" y="24" font-size="12" font-weight="700" fill="#E64545">冲突处理 · MTR-2026-B00118</text>
        <text x="16" y="44" font-size="11" fill="#5A6472">云端账面已更新为 990，本地记录 986</text>
        <rect x="16" y="56" width="120" height="38" rx="10" fill="#fff" stroke="#0E5FD8" stroke-width="1.5"/>
        <text x="76" y="80" text-anchor="middle" font-size="12" fill="#0E5FD8" font-weight="600">保留云端</text>
        <rect x="148" y="56" width="120" height="38" rx="10" fill="#fff" stroke="#DFE3E8"/>
        <text x="208" y="80" text-anchor="middle" font-size="12" fill="#5A6472">保留本地</text>
      </g>

      <text x="170" y="762" text-anchor="middle" font-size="14" font-weight="700" fill="#1A1F26">⑥ 离线暂存 / 队列</text>
      <text x="170" y="784" text-anchor="middle" font-size="12" fill="#8A94A3">离线可用 · 冲突可视化处理</text>
    </g>
  </g>

  <!-- ============ 第 3 行：主管概览 / 审批 / 管理员权限 ============ -->
  <g transform="translate(60,1680)">

    <!-- ·········· 屏幕 7：主管概览 ·········· -->
    <g transform="translate(0,0)">
      <rect width="340" height="720" rx="32" fill="#FFFFFF" filter="url(#phoneShadow)"/>
      <rect x="14" y="14" width="312" height="692" rx="24" fill="#F4F6F9"/>
      <text x="42" y="48" font-size="16" font-weight="700" fill="#1A1F26">概览</text>
      <text x="284" y="48" font-size="12" fill="#5A6472">王主管 · 主管</text>

      <!-- 今日卡片 -->
      <g transform="translate(28,70)">
        <rect width="284" height="112" rx="14" fill="url(#brandGrad)"/>
        <text x="20" y="28" font-size="12" fill="#fff" opacity=".8">今日流转总量</text>
        <text x="20" y="68" class="mono" font-size="34" font-weight="700" fill="#fff">4,826</text>
        <text x="150" y="68" font-size="13" fill="#fff" opacity=".8">PCS</text>
        <rect x="20" y="82" width="80" height="20" rx="10" fill="#fff" opacity=".2"/>
        <text x="60" y="96" text-anchor="middle" font-size="10" fill="#fff">↑ 12.4% 环比</text>
        <g transform="translate(200,36)">
          <circle r="34" fill="none" stroke="#fff" stroke-opacity=".25" stroke-width="7"/>
          <circle r="34" fill="none" stroke="#00EB9A" stroke-width="7" stroke-dasharray="160 214" stroke-linecap="round" transform="rotate(-90)"/>
          <text x="0" y="4" text-anchor="middle" font-size="15" fill="#fff" font-weight="700">75%</text>
          <text x="0" y="18" text-anchor="middle" font-size="8" fill="#fff" opacity=".75">完成率</text>
        </g>
      </g>

      <!-- 指标格 -->
      <g transform="translate(28,196)">
        <rect width="136" height="76" rx="12" fill="#fff" filter="url(#cardShadow)"/>
        <text x="16" y="26" font-size="11" fill="#8A94A3">入库单</text>
        <text x="16" y="56" class="mono" font-size="24" font-weight="700" fill="#00A870">128</text>
        <text x="112" y="56" text-anchor="end" font-size="10" fill="#5A6472">笔</text>

        <rect x="148" width="136" height="76" rx="12" fill="#fff" filter="url(#cardShadow)"/>
        <text x="164" y="26" font-size="11" fill="#8A94A3">出库单</text>
        <text x="164" y="56" class="mono" font-size="24" font-weight="700" fill="#F5A623">96</text>
        <text x="260" y="56" text-anchor="end" font-size="10" fill="#5A6472">笔</text>
      </g>
      <g transform="translate(28,284)">
        <rect width="136" height="76" rx="12" fill="#fff" filter="url(#cardShadow)"/>
        <text x="16" y="26" font-size="11" fill="#8A94A3">异常单</text>
        <text x="16" y="56" class="mono" font-size="24" font-weight="700" fill="#E64545">7</text>
        <text x="112" y="56" text-anchor="end" font-size="10" fill="#5A6472">待处理</text>

        <rect x="148" width="136" height="76" rx="12" fill="#fff" filter="url(#cardShadow)"/>
        <text x="164" y="26" font-size="11" fill="#8A94A3">在岗人员</text>
        <text x="164" y="56" class="mono" font-size="24" font-weight="700" fill="#0E5FD8">23</text>
        <text x="260" y="56" text-anchor="end" font-size="10" fill="#5A6472">人</text>
      </g>

      <!-- 趋势图 -->
      <g transform="translate(28,378)">
        <rect width="284" height="140" rx="12" fill="#fff" filter="url(#cardShadow)"/>
        <text x="16" y="24" font-size="12" font-weight="700" fill="#1A1F26">近 7 日流转趋势</text>
        <g transform="translate(16,44)">
          <line x1="0" y1="72" x2="252" y2="72" class="hair"/>
          <polyline points="18,58 54,44 90,50 126,30 162,38 198,20 234,26" fill="none" stroke="#0E5FD8" stroke-width="2.6" stroke-linecap="round" stroke-linejoin="round"/>
          <polygon points="18,58 54,44 90,50 126,30 162,38 198,20 234,26 234,72 18,72" fill="#0E5FD8" opacity=".08"/>
          <circle cx="234" cy="26" r="4" fill="#0E5FD8"/>
          <text x="18" y="88" text-anchor="middle" font-size="8" fill="#8A94A3">5日</text>
          <text x="90" y="88" text-anchor="middle" font-size="8" fill="#8A94A3">7日</text>
          <text x="162" y="88" text-anchor="middle" font-size="8" fill="#8A94A3">9日</text>
          <text x="234" y="88" text-anchor="middle" font-size="8" fill="#8A94A3">今日</text>
        </g>
      </g>

      <!-- 待审批 -->
      <g transform="translate(28,534)">
        <rect width="284" height="72" rx="12" fill="#fff" stroke="#F5A623" stroke-width="1.5"/>
        <text x="16" y="26" font-size="12" font-weight="700" fill="#1A1F26">待我审批</text>
        <rect x="16" y="38" width="32" height="24" rx="8" fill="#F5A623" opacity=".18"/>
        <text x="32" y="55" text-anchor="middle" font-size="12" fill="#B8791A" font-weight="700">7</text>
        <text x="56" y="55" font-size="11" fill="#5A6472">超领 3 · 数量异常 2 · 报废 2</text>
        <text x="268" y="55" text-anchor="end" font-size="14" fill="#8A94A3">›</text>
      </g>

      <!-- Tab -->
      <g transform="translate(14,634)">
        <rect width="312" height="72" fill="#fff"/>
        <line x1="0" y1="0" x2="312" y2="0" class="hair"/>
        <g transform="translate(39,24)"><rect x="-9" y="-9" width="18" height="18" rx="4" fill="none" stroke="#0E5FD8" stroke-width="2.2"/><rect x="-4" y="-4" width="4" height="4" fill="#0E5FD8"/><rect x="2" y="2" width="4" height="4" fill="#0E5FD8"/></g>
        <text x="39" y="52" text-anchor="middle" font-size="10" fill="#0E5FD8" font-weight="600">概览</text>
        <g transform="translate(117,24)"><path d="M-8 -8 h16 v16 h-16 z M-3 0 l2.5 2.5 l6 -6" fill="none" stroke="#8A94A3" stroke-width="2.2" stroke-linejoin="round"/></g>
        <text x="117" y="52" text-anchor="middle" font-size="10" fill="#8A94A3">审批</text>
        <g transform="translate(195,24)"><path d="M-9 8 v-10 M-3 8 v-16 M3 8 v-6 M9 8 v-13" stroke="#8A94A3" stroke-width="2.4" stroke-linecap="round"/></g>
        <text x="195" y="52" text-anchor="middle" font-size="10" fill="#8A94A3">报表</text>
        <g transform="translate(273,24)"><circle cy="-4" r="5" fill="none" stroke="#8A94A3" stroke-width="2.2"/><path d="M-8 11 q8 -8 16 0" stroke="#8A94A3" stroke-width="2.2" fill="none"/></g>
        <text x="273" y="52" text-anchor="middle" font-size="10" fill="#8A94A3">我的</text>
      </g>

      <text x="170" y="762" text-anchor="middle" font-size="14" font-weight="700" fill="#1A1F26">⑦ 主管数据概览</text>
      <text x="170" y="784" text-anchor="middle" font-size="12" fill="#8A94A3">角色化 Tab · 指标 + 趋势 + 待办</text>
    </g>

    <!-- ·········· 屏幕 8：审批详情 ·········· -->
    <g transform="translate(400,0)">
      <rect width="340" height="720" rx="32" fill="#FFFFFF" filter="url(#phoneShadow)"/>
      <rect x="14" y="14" width="312" height="692" rx="24" fill="#F4F6F9"/>
      <text x="42" y="48" font-size="20" fill="#1A1F26">‹</text>
      <text x="170" y="50" text-anchor="middle" font-size="16" font-weight="700" fill="#1A1F26">异常审批</text>

      <!-- 异常卡 -->
      <g transform="translate(28,70)">
        <rect width="284" height="150" rx="12" fill="#fff" stroke="#E64545" stroke-width="1.5"/>
        <rect x="16" y="18" width="88" height="24" rx="8" fill="#E64545" opacity=".13"/>
        <text x="60" y="35" text-anchor="middle" font-size="11" fill="#E64545" font-weight="700">数量异常</text>
        <text x="16" y="64" font-size="11" fill="#8A94A3">料号</text>
        <text x="16" y="84" class="mono" font-size="15" font-weight="700" fill="#1A1F26">MTR-2026-A00871</text>
        <line x1="16" y1="96" x2="268" y2="96" class="hair"/>
        <text x="16" y="114" font-size="11" fill="#8A94A3">账面 1,280</text>
        <text x="110" y="114" class="mono" font-size="13" fill="#1A1F26" font-weight="700">实盘 986</text>
        <text x="196" y="114" font-size="11" fill="#E64545" font-weight="700">差异 -294</text>
        <text x="16" y="136" font-size="11" fill="#5A6472">提交人：张三（操作员）· 12:02</text>
      </g>

      <!-- 拍照凭证 -->
      <text x="28" y="248" font-size="12" font-weight="700" fill="#1A1F26">现场凭证</text>
      <g transform="translate(28,260)">
        <rect width="88" height="88" rx="10" fill="#E8EDF3"/>
        <path d="M34 44 l12 -12 l12 12 M46 32 v24" stroke="#8A94A3" stroke-width="2" fill="none" transform="rotate(180 46 44)"/>
        <rect x="98" width="88" height="88" rx="10" fill="#E8EDF3"/>
        <rect x="196" width="88" height="88" rx="10" fill="#fff" stroke="#DFE3E8" stroke-dasharray="4 4"/>
        <text x="240" y="40" text-anchor="middle" font-size="20" fill="#8A94A3">+</text>
        <text x="240" y="58" text-anchor="middle" font-size="10" fill="#8A94A3">补拍</text>
      </g>

      <!-- 处理意见 -->
      <text x="28" y="382" font-size="12" font-weight="700" fill="#1A1F26">审批意见</text>
      <g transform="translate(28,394)">
        <rect width="284" height="86" rx="12" fill="#fff" stroke="#DFE3E8"/>
        <text x="16" y="28" font-size="12" fill="#8A94A3">填写处理意见（必填）…</text>
      </g>

      <!-- 快捷意见 -->
      <g transform="translate(28,492)">
        <rect width="128" height="32" rx="9" fill="#E8F0FE"/>
        <text x="64" y="21" text-anchor="middle" font-size="11" fill="#0E5FD8">同意调整账面</text>
        <rect x="140" width="144" height="32" rx="9" fill="#E8F0FE"/>
        <text x="212" y="21" text-anchor="middle" font-size="11" fill="#0E5FD8">要求重新盘点</text>
      </g>

      <!-- 操作按钮 -->
      <g transform="translate(28,548)">
        <rect width="136" height="56" rx="12" fill="#E64545"/>
        <text x="68" y="35" text-anchor="middle" font-size="15" fill="#fff" font-weight="700">驳回</text>
        <rect x="148" width="136" height="56" rx="12" fill="#00A870"/>
        <text x="216" y="35" text-anchor="middle" font-size="15" fill="#fff" font-weight="700">通过</text>
      </g>
      <text x="170" y="636" text-anchor="middle" font-size="11" fill="#8A94A3">通过后自动更新库存并记录审批人</text>

      <text x="170" y="762" text-anchor="middle" font-size="14" font-weight="700" fill="#1A1F26">⑧ 主管审批</text>
      <text x="170" y="784" text-anchor="middle" font-size="12" fill="#8A94A3">凭证 + 差异高亮 + 快捷意见</text>
    </g>

    <!-- ·········· 屏幕 9：管理员权限矩阵 ·········· -->
    <g transform="translate(800,0)">
      <rect width="340" height="720" rx="32" fill="#FFFFFF" filter="url(#phoneShadow)"/>
      <rect x="14" y="14" width="312" height="692" rx="24" fill="#F4F6F9"/>
      <text x="42" y="48" font-size="20" fill="#1A1F26">‹</text>
      <text x="170" y="50" text-anchor="middle" font-size="16" font-weight="700" fill="#1A1F26">用户与权限</text>
      <text x="298" y="48" text-anchor="end" font-size="13" fill="#0E5FD8">新增</text>

      <!-- 用户卡 -->
      <g transform="translate(28,68)">
        <rect width="284" height="72" rx="12" fill="#fff" filter="url(#cardShadow)"/>
        <circle cx="38" cy="36" r="20" fill="#E8F0FE"/>
        <text x="38" y="42" text-anchor="middle" font-size="14" fill="#0E5FD8" font-weight="700">张</text>
        <text x="70" y="30" font-size="14" font-weight="700" fill="#1A1F26">张三</text>
        <text x="70" y="50" class="mono" font-size="11" fill="#5A6472">E20260417 · 收货组</text>
        <rect x="204" y="24" width="64" height="24" rx="8" fill="#0E5FD8" opacity=".12"/>
        <text x="236" y="41" text-anchor="middle" font-size="11" fill="#0E5FD8" font-weight="600">操作员</text>
      </g>
      <g transform="translate(28,148)">
        <rect width="284" height="72" rx="12" fill="#fff" filter="url(#cardShadow)"/>
        <circle cx="38" cy="36" r="20" fill="#00A870" opacity=".14"/>
        <text x="38" y="42" text-anchor="middle" font-size="14" fill="#00A870" font-weight="700">李</text>
        <text x="70" y="30" font-size="14" font-weight="700" fill="#1A1F26">李四</text>
        <text x="70" y="50" class="mono" font-size="11" fill="#5A6472">E20251103 · 仓储部</text>
        <rect x="204" y="24" width="64" height="24" rx="8" fill="#00A870" opacity=".14"/>
        <text x="236" y="41" text-anchor="middle" font-size="11" fill="#00A870" font-weight="600">仓管</text>
      </g>
      <g transform="translate(28,228)">
        <rect width="284" height="72" rx="12" fill="#fff" filter="url(#cardShadow)"/>
        <circle cx="38" cy="36" r="20" fill="#F5A623" opacity=".16"/>
        <text x="38" y="42" text-anchor="middle" font-size="14" fill="#B8791A" font-weight="700">王</text>
        <text x="70" y="30" font-size="14" font-weight="700" fill="#1A1F26">王五</text>
        <text x="70" y="50" class="mono" font-size="11" fill="#5A6472">E20230822 · 物流中心</text>
        <rect x="204" y="24" width="64" height="24" rx="8" fill="#F5A623" opacity=".16"/>
        <text x="236" y="41" text-anchor="middle" font-size="11" fill="#B8791A" font-weight="600">主管</text>
      </g>

      <!-- 权限矩阵 -->
      <text x="28" y="328" font-size="12" font-weight="700" fill="#1A1F26">角色权限矩阵</text>
      <g transform="translate(28,340)">
        <rect width="284" height="244" rx="12" fill="#fff" filter="url(#cardShadow)"/>
        <!-- 表头 -->
        <text x="16" y="26" font-size="11" fill="#8A94A3">功能</text>
        <text x="164" y="26" text-anchor="middle" font-size="10" fill="#5A6472">操作员</text>
        <text x="206" y="26" text-anchor="middle" font-size="10" fill="#5A6472">仓管</text>
        <text x="240" y="26" text-anchor="middle" font-size="10" fill="#5A6472">主管</text>
        <text x="272" y="26" text-anchor="middle" font-size="10" fill="#5A6472">管理</text>
        <line x1="12" y1="36" x2="272" y2="36" class="hair"/>

        <!-- 行 -->
        <g font-size="11" fill="#1A1F26">
          <text x="16" y="60">扫码查看</text>
          <text x="164" y="60" text-anchor="middle" fill="#00A870">✓</text><text x="206" y="60" text-anchor="middle" fill="#00A870">✓</text><text x="240" y="60" text-anchor="middle" fill="#00A870">✓</text><text x="272" y="60" text-anchor="middle" fill="#00A870">✓</text>
        </g>
        <g font-size="11" fill="#1A1F26">
          <text x="16" y="88">提交流转</text>
          <text x="164" y="88" text-anchor="middle" fill="#00A870">✓</text><text x="206" y="88" text-anchor="middle" fill="#00A870">✓</text><text x="240" y="88" text-anchor="middle" fill="#00A870">✓</text><text x="272" y="88" text-anchor="middle" fill="#00A870">✓</text>
        </g>
        <g font-size="11" fill="#1A1F26">
          <text x="16" y="116">绑定库位</text>
          <text x="164" y="116" text-anchor="middle" fill="#00A870">✓</text><text x="206" y="116" text-anchor="middle" fill="#00A870">✓</text><text x="240" y="116" text-anchor="middle" fill="#00A870">✓</text><text x="272" y="116" text-anchor="middle" fill="#00A870">✓</text>
        </g>
        <g font-size="11" fill="#1A1F26">
          <text x="16" y="144">批量盘点</text>
          <text x="164" y="144" text-anchor="middle" fill="#C9CFD6">—</text><text x="206" y="144" text-anchor="middle" fill="#00A870">✓</text><text x="240" y="144" text-anchor="middle" fill="#00A870">✓</text><text x="272" y="144" text-anchor="middle" fill="#00A870">✓</text>
        </g>
        <g font-size="11" fill="#1A1F26">
          <text x="16" y="172">库存调整</text>
          <text x="164" y="172" text-anchor="middle" fill="#C9CFD6">—</text><text x="206" y="172" text-anchor="middle" fill="#00A870">✓</text><text x="240" y="172" text-anchor="middle" fill="#00A870">✓</text><text x="272" y="172" text-anchor="middle" fill="#C9CFD6">—</text>
        </g>
        <g font-size="11" fill="#1A1F26">
          <text x="16" y="200">异常审批</text>
          <text x="164" y="200" text-anchor="middle" fill="#C9CFD6">—</text><text x="206" y="200" text-anchor="middle" fill="#C9CFD6">—</text><text x="240" y="200" text-anchor="middle" fill="#00A870">✓</text><text x="272" y="200" text-anchor="middle" fill="#00A870">✓</text>
        </g>
        <g font-size="11" fill="#1A1F26">
          <text x="16" y="228">权限管理</text>
          <text x="164" y="228" text-anchor="middle" fill="#C9CFD6">—</text><text x="206" y="228" text-anchor="middle" fill="#C9CFD6">—</text><text x="240" y="228" text-anchor="middle" fill="#C9CFD6">—</text><text x="272" y="228" text-anchor="middle" fill="#00A870">✓</text>
        </g>
      </g>

      <!-- 危险操作 -->
      <g transform="translate(28,600)">
        <rect width="284" height="44" rx="10" fill="#E64545" opacity=".08"/>
        <text x="16" y="27" font-size="11" fill="#E64545">⚠ 权限变更将实时生效，需二次确认</text>
      </g>

      <text x="170" y="762" text-anchor="middle" font-size="14" font-weight="700" fill="#1A1F26">⑨ 管理员权限体系</text>
      <text x="170" y="784" text-anchor="middle" font-size="12" fill="#8A94A3">矩阵可视化 · 变更二次确认</text>
    </g>
  </g>
</svg>
